<svg xmlns="http://www.w3.org/2000/svg" xmlns:xlink="http://www.w3.org/1999/xlink" width="130" zoomAndPan="magnify" viewBox="0 0 97.5 77.249999" height="103" preserveAspectRatio="xMidYMid meet" version="1.0"><defs><g/></defs><path stroke-linecap="butt" transform="matrix(0.171913, 0, 0, 0.171913, 25.963724, 30.572603)" fill="none" stroke-linejoin="miter" d="M 103.983303 40.773028 L 65.151062 154.997531 L 38.747865 154.997531 L 0.00651308 40.773028 L 24.455601 40.773028 L 45.928081 108.757853 C 46.291636 109.893963 46.905135 112.052572 47.723134 115.188236 C 48.563856 118.346622 49.404577 121.686785 50.268021 125.186004 C 51.131465 128.707945 51.722242 131.616387 52.040353 133.911329 C 52.335741 131.616387 52.903796 128.730667 53.721795 125.231448 C 54.517072 121.754952 55.335072 118.414788 56.130349 115.279124 C 56.948348 112.120739 57.516403 109.939407 57.879958 108.757853 L 79.534215 40.773028 Z M 269.87809 40.773028 L 240.816396 154.997531 L 213.231644 154.997531 L 197.757826 95.010921 C 197.439715 93.852089 197.030715 92.10248 196.508104 89.762093 C 195.985494 87.421706 195.440161 84.854098 194.872106 82.059267 C 194.304051 79.287159 193.78144 76.651383 193.349719 74.174663 C 192.895275 71.697944 192.599886 69.743834 192.440831 68.289613 C 192.304497 69.743834 191.986387 71.697944 191.554665 74.151941 C 191.100221 76.583217 190.623055 79.19627 190.077722 81.945656 C 189.509667 84.717765 188.987056 87.285373 188.464445 89.693926 C 187.941835 92.079758 187.532835 93.897534 187.214724 95.147255 L 171.831795 154.997531 L 144.31521 154.997531 L 115.185348 40.773028 L 139.020937 40.773028 L 153.631312 103.122747 C 154.040311 105.00869 154.517478 107.235465 155.06281 109.848518 C 155.608143 112.438849 156.153476 115.165513 156.698809 118.005789 C 157.244142 120.846064 157.74403 123.572728 158.198474 126.208503 C 158.630196 128.844278 158.971029 131.116498 159.175529 133.047885 C 159.425473 131.071054 159.766306 128.753389 160.175306 126.140336 C 160.607027 123.504561 161.061471 120.823341 161.56136 118.096677 C 162.038526 115.347291 162.561137 112.802405 163.083747 110.462018 C 163.606358 108.121631 164.060802 106.212966 164.492524 104.758746 L 181.125175 40.773028 L 204.006431 40.773028 L 220.661804 104.758746 C 221.025359 106.167522 221.457081 108.053465 221.934247 110.439296 C 222.434135 112.802405 222.934024 115.370013 223.456634 118.1194 C 223.979245 120.891508 224.479134 123.572728 224.910855 126.208503 C 225.342577 128.844278 225.68341 131.116498 225.88791 133.047885 C 226.251465 130.434832 226.751354 127.276446 227.410297 123.550005 C 228.069241 119.823565 228.773629 116.119846 229.523462 112.416127 C 230.273295 108.735131 230.932238 105.622189 231.523016 103.122747 L 246.042502 40.773028 Z M 269.87809 40.773028 " stroke="#4a4a4a" stroke-width="6" stroke-opacity="1" stroke-miterlimit="4"/><g fill="#4a4a4a" fill-opacity="1"><g transform="translate(18.200655, 41.971462)"><g><path d="M 0.8125 -1.265625 L 0.296875 -0.46875 L -3.484375 -2.90625 L -2.078125 -5.09375 L -1.421875 -4.671875 L -2.3125 -3.28125 L -1.34375 -2.65625 L -0.515625 -3.9375 L 0.140625 -3.515625 L -0.6875 -2.234375 Z M 0.8125 -1.265625 "/></g></g></g><g fill="#4a4a4a" fill-opacity="1"><g transform="translate(20.172296, 38.884973)"><g><path d="M -2.328125 -4.28125 C -2.054688 -4.601562 -1.796875 -4.835938 -1.546875 -4.984375 C -1.304688 -5.128906 -1.070312 -5.191406 -0.84375 -5.171875 C -0.613281 -5.148438 -0.378906 -5.046875 -0.140625 -4.859375 C 0.015625 -4.722656 0.128906 -4.578125 0.203125 -4.421875 C 0.273438 -4.265625 0.3125 -4.097656 0.3125 -3.921875 C 0.3125 -3.753906 0.289062 -3.597656 0.25 -3.453125 L 2.625 -3.25 L 1.953125 -2.421875 L -0.0625 -2.671875 L -0.390625 -2.265625 L 0.953125 -1.171875 L 0.359375 -0.4375 L -3.140625 -3.265625 Z M -1.75 -3.75 L -1.9375 -3.515625 L -0.984375 -2.75 L -0.78125 -3 C -0.582031 -3.25 -0.484375 -3.457031 -0.484375 -3.625 C -0.492188 -3.800781 -0.578125 -3.953125 -0.734375 -4.078125 C -0.898438 -4.210938 -1.0625 -4.253906 -1.21875 -4.203125 C -1.375 -4.148438 -1.550781 -4 -1.75 -3.75 Z M -1.75 -3.75 "/></g></g></g><g fill="#4a4a4a" fill-opacity="1"><g transform="translate(22.876116, 35.51143)"><g><path d="M 1.8125 -4.859375 C 2.050781 -4.597656 2.234375 -4.332031 2.359375 -4.0625 C 2.492188 -3.800781 2.566406 -3.535156 2.578125 -3.265625 C 2.597656 -2.992188 2.550781 -2.722656 2.4375 -2.453125 C 2.320312 -2.191406 2.128906 -1.9375 1.859375 -1.6875 C 1.585938 -1.425781 1.316406 -1.242188 1.046875 -1.140625 C 0.785156 -1.035156 0.519531 -1 0.25 -1.03125 C -0.0195312 -1.0625 -0.285156 -1.144531 -0.546875 -1.28125 C -0.804688 -1.425781 -1.054688 -1.628906 -1.296875 -1.890625 C -1.617188 -2.222656 -1.84375 -2.566406 -1.96875 -2.921875 C -2.101562 -3.285156 -2.117188 -3.644531 -2.015625 -4 C -1.921875 -4.363281 -1.695312 -4.710938 -1.34375 -5.046875 C -0.988281 -5.390625 -0.628906 -5.597656 -0.265625 -5.671875 C 0.0976562 -5.753906 0.453125 -5.722656 0.796875 -5.578125 C 1.148438 -5.429688 1.488281 -5.191406 1.8125 -4.859375 Z M -0.5625 -2.59375 C -0.34375 -2.351562 -0.128906 -2.175781 0.078125 -2.0625 C 0.296875 -1.957031 0.507812 -1.914062 0.71875 -1.9375 C 0.925781 -1.96875 1.125 -2.078125 1.3125 -2.265625 C 1.507812 -2.453125 1.625 -2.644531 1.65625 -2.84375 C 1.6875 -3.050781 1.648438 -3.265625 1.546875 -3.484375 C 1.453125 -3.703125 1.296875 -3.929688 1.078125 -4.171875 C 0.753906 -4.503906 0.4375 -4.707031 0.125 -4.78125 C -0.1875 -4.851562 -0.492188 -4.75 -0.796875 -4.46875 C -0.984375 -4.28125 -1.09375 -4.082031 -1.125 -3.875 C -1.164062 -3.675781 -1.132812 -3.46875 -1.03125 -3.25 C -0.9375 -3.039062 -0.78125 -2.820312 -0.5625 -2.59375 Z M -0.5625 -2.59375 "/></g></g></g><g fill="#4a4a4a" fill-opacity="1"><g transform="translate(26.607757, 31.958824)"><g><path d="M 3.71875 -2.65625 L 2.71875 -1.9375 L -0.859375 -3.578125 L -0.875 -3.5625 C -0.78125 -3.457031 -0.691406 -3.347656 -0.609375 -3.234375 C -0.523438 -3.117188 -0.4375 -3.003906 -0.34375 -2.890625 C -0.257812 -2.773438 -0.171875 -2.664062 -0.078125 -2.5625 L 1.15625 -0.828125 L 0.453125 -0.328125 L -2.15625 -3.984375 L -1.171875 -4.6875 L 2.375 -3.09375 L 2.390625 -3.109375 C 2.304688 -3.222656 2.222656 -3.328125 2.140625 -3.421875 C 2.054688 -3.523438 1.972656 -3.632812 1.890625 -3.75 C 1.804688 -3.863281 1.722656 -3.976562 1.640625 -4.09375 L 0.40625 -5.8125 L 1.109375 -6.3125 Z M 3.71875 -2.65625 "/></g></g></g><g fill="#4a4a4a" fill-opacity="1"><g transform="translate(30.947642, 28.925807)"><g><path d="M 2.03125 -1.109375 L 1.1875 -0.640625 L -0.578125 -3.90625 L -1.65625 -3.328125 L -2.03125 -4.015625 L 0.96875 -5.640625 L 1.34375 -4.953125 L 0.265625 -4.375 Z M 2.03125 -1.109375 "/></g></g></g><g fill="#4a4a4a" fill-opacity="1"><g transform="translate(34.352252, 27.096899)"><g><path d="M 2.921875 -1.203125 L 0.515625 -0.21875 L -1.203125 -4.375 L 1.203125 -5.359375 L 1.5 -4.640625 L -0.015625 -4.015625 L 0.359375 -3.109375 L 1.765625 -3.703125 L 2.0625 -2.96875 L 0.65625 -2.375 L 1.09375 -1.3125 L 2.609375 -1.9375 Z M 2.921875 -1.203125 "/></g></g></g><g fill="#4a4a4a" fill-opacity="1"><g transform="translate(37.761515, 25.641662)"><g><path d="M 4.390625 -1.21875 L 3.21875 -0.890625 L 0.4375 -3.65625 L 0.40625 -3.640625 C 0.445312 -3.523438 0.488281 -3.394531 0.53125 -3.25 C 0.582031 -3.113281 0.628906 -2.976562 0.671875 -2.84375 C 0.710938 -2.707031 0.757812 -2.566406 0.8125 -2.421875 L 1.375 -0.375 L 0.546875 -0.15625 L -0.65625 -4.5 L 0.5 -4.8125 L 3.296875 -2.078125 L 3.3125 -2.078125 C 3.269531 -2.222656 3.222656 -2.359375 3.171875 -2.484375 C 3.128906 -2.617188 3.085938 -2.753906 3.046875 -2.890625 C 3.015625 -3.023438 2.972656 -3.148438 2.921875 -3.265625 L 2.359375 -5.328125 L 3.1875 -5.5625 Z M 4.390625 -1.21875 "/></g></g></g><g fill="#4a4a4a" fill-opacity="1"><g transform="translate(42.844668, 24.256625)"><g><path d="M 3.96875 -2.859375 C 4.039062 -2.347656 4 -1.910156 3.84375 -1.546875 C 3.695312 -1.191406 3.453125 -0.898438 3.109375 -0.671875 C 2.765625 -0.453125 2.335938 -0.3125 1.828125 -0.25 L 0.5625 -0.078125 L -0.03125 -4.53125 L 1.375 -4.71875 C 1.832031 -4.78125 2.242188 -4.753906 2.609375 -4.640625 C 2.984375 -4.523438 3.285156 -4.316406 3.515625 -4.015625 C 3.753906 -3.710938 3.90625 -3.328125 3.96875 -2.859375 Z M 2.984375 -2.6875 C 2.929688 -3.007812 2.84375 -3.273438 2.71875 -3.484375 C 2.59375 -3.691406 2.429688 -3.832031 2.234375 -3.90625 C 2.035156 -3.976562 1.796875 -3.992188 1.515625 -3.953125 L 1 -3.890625 L 1.390625 -1 L 1.8125 -1.0625 C 2.257812 -1.113281 2.582031 -1.273438 2.78125 -1.546875 C 2.976562 -1.816406 3.046875 -2.195312 2.984375 -2.6875 Z M 2.984375 -2.6875 "/></g></g></g><g fill="#4a4a4a" fill-opacity="1"><g transform="translate(47.715162, 23.682254)"><g/></g></g><g fill="#4a4a4a" fill-opacity="1"><g transform="translate(49.587979, 23.545114)"><g><path d="M 4.421875 -2.078125 C 4.398438 -1.566406 4.28125 -1.144531 4.0625 -0.8125 C 3.851562 -0.488281 3.5625 -0.25 3.1875 -0.09375 C 2.8125 0.0507812 2.363281 0.113281 1.84375 0.09375 L 0.5625 0.03125 L 0.796875 -4.46875 L 2.21875 -4.40625 C 2.6875 -4.375 3.085938 -4.265625 3.421875 -4.078125 C 3.765625 -3.898438 4.023438 -3.640625 4.203125 -3.296875 C 4.378906 -2.960938 4.453125 -2.554688 4.421875 -2.078125 Z M 3.421875 -2.09375 C 3.441406 -2.425781 3.40625 -2.703125 3.3125 -2.921875 C 3.226562 -3.148438 3.09375 -3.316406 2.90625 -3.421875 C 2.726562 -3.535156 2.5 -3.597656 2.21875 -3.609375 L 1.703125 -3.640625 L 1.5625 -0.71875 L 1.984375 -0.703125 C 2.441406 -0.679688 2.789062 -0.785156 3.03125 -1.015625 C 3.269531 -1.242188 3.398438 -1.601562 3.421875 -2.09375 Z M 3.421875 -2.09375 "/></g></g></g><g fill="#4a4a4a" fill-opacity="1"><g transform="translate(54.431439, 23.833839)"><g><path d="M 3.109375 0.53125 L 0.546875 0.09375 L 1.296875 -4.34375 L 3.859375 -3.90625 L 3.734375 -3.140625 L 2.125 -3.421875 L 1.953125 -2.453125 L 3.453125 -2.203125 L 3.328125 -1.421875 L 1.828125 -1.671875 L 1.625 -0.53125 L 3.234375 -0.25 Z M 3.109375 0.53125 "/></g></g></g><g fill="#4a4a4a" fill-opacity="1"><g transform="translate(58.113335, 24.449603)"><g><path d="M 5.1875 -3.203125 L 2.484375 0.703125 L 1.46875 0.421875 L 1.234375 -4.328125 L 2.171875 -4.0625 L 2.25 -1.265625 C 2.25 -1.210938 2.242188 -1.125 2.234375 -1 C 2.234375 -0.875 2.226562 -0.738281 2.21875 -0.59375 C 2.21875 -0.457031 2.207031 -0.335938 2.1875 -0.234375 C 2.238281 -0.328125 2.296875 -0.429688 2.359375 -0.546875 C 2.429688 -0.671875 2.5 -0.785156 2.5625 -0.890625 C 2.632812 -1.003906 2.675781 -1.085938 2.6875 -1.140625 L 4.25 -3.46875 Z M 5.1875 -3.203125 "/></g></g></g><g fill="#4a4a4a" fill-opacity="1"><g transform="translate(62.217378, 25.592785)"><g><path d="M 5.171875 -0.25 C 5.035156 0.0703125 4.867188 0.347656 4.671875 0.578125 C 4.472656 0.804688 4.253906 0.976562 4.015625 1.09375 C 3.785156 1.21875 3.519531 1.273438 3.21875 1.265625 C 2.925781 1.265625 2.613281 1.191406 2.28125 1.046875 C 1.9375 0.898438 1.664062 0.722656 1.46875 0.515625 C 1.269531 0.304688 1.128906 0.078125 1.046875 -0.171875 C 0.960938 -0.429688 0.9375 -0.707031 0.96875 -1 C 1 -1.300781 1.082031 -1.613281 1.21875 -1.9375 C 1.40625 -2.375 1.640625 -2.71875 1.921875 -2.96875 C 2.203125 -3.21875 2.523438 -3.367188 2.890625 -3.421875 C 3.253906 -3.472656 3.660156 -3.40625 4.109375 -3.21875 C 4.554688 -3.019531 4.890625 -2.769531 5.109375 -2.46875 C 5.328125 -2.164062 5.4375 -1.828125 5.4375 -1.453125 C 5.445312 -1.085938 5.359375 -0.6875 5.171875 -0.25 Z M 2.15625 -1.53125 C 2.03125 -1.238281 1.957031 -0.972656 1.9375 -0.734375 C 1.925781 -0.492188 1.96875 -0.285156 2.0625 -0.109375 C 2.164062 0.0664062 2.34375 0.207031 2.59375 0.3125 C 2.84375 0.425781 3.066406 0.457031 3.265625 0.40625 C 3.472656 0.351562 3.65625 0.238281 3.8125 0.0625 C 3.976562 -0.113281 4.125 -0.347656 4.25 -0.640625 C 4.4375 -1.078125 4.5 -1.453125 4.4375 -1.765625 C 4.382812 -2.078125 4.171875 -2.316406 3.796875 -2.484375 C 3.546875 -2.585938 3.320312 -2.613281 3.125 -2.5625 C 2.925781 -2.519531 2.742188 -2.410156 2.578125 -2.234375 C 2.421875 -2.054688 2.28125 -1.820312 2.15625 -1.53125 Z M 2.15625 -1.53125 "/></g></g></g><g fill="#4a4a4a" fill-opacity="1"><g transform="translate(66.969129, 27.685615)"><g><path d="M 0.484375 0.28125 L 2.75 -3.609375 L 3.578125 -3.125 L 1.71875 0.078125 L 3.296875 0.984375 L 2.890625 1.671875 Z M 0.484375 0.28125 "/></g></g></g><g fill="#4a4a4a" fill-opacity="1"><g transform="translate(70.220243, 29.5335)"><g><path d="M 5.078125 1 C 4.867188 1.28125 4.640625 1.503906 4.390625 1.671875 C 4.148438 1.847656 3.898438 1.96875 3.640625 2.03125 C 3.378906 2.09375 3.109375 2.082031 2.828125 2 C 2.546875 1.925781 2.257812 1.78125 1.96875 1.5625 C 1.675781 1.332031 1.453125 1.09375 1.296875 0.84375 C 1.148438 0.601562 1.066406 0.347656 1.046875 0.078125 C 1.035156 -0.191406 1.078125 -0.46875 1.171875 -0.75 C 1.273438 -1.03125 1.429688 -1.3125 1.640625 -1.59375 C 1.929688 -1.96875 2.238281 -2.242188 2.5625 -2.421875 C 2.894531 -2.597656 3.25 -2.664062 3.625 -2.625 C 4 -2.59375 4.378906 -2.429688 4.765625 -2.140625 C 5.160156 -1.847656 5.425781 -1.523438 5.5625 -1.171875 C 5.695312 -0.828125 5.722656 -0.472656 5.640625 -0.109375 C 5.554688 0.253906 5.367188 0.625 5.078125 1 Z M 2.453125 -0.984375 C 2.265625 -0.722656 2.132812 -0.476562 2.0625 -0.25 C 1.988281 -0.03125 1.976562 0.175781 2.03125 0.375 C 2.09375 0.582031 2.226562 0.769531 2.4375 0.9375 C 2.65625 1.101562 2.867188 1.179688 3.078125 1.171875 C 3.296875 1.171875 3.503906 1.101562 3.703125 0.96875 C 3.898438 0.84375 4.09375 0.648438 4.28125 0.390625 C 4.570312 0.015625 4.726562 -0.328125 4.75 -0.640625 C 4.769531 -0.960938 4.613281 -1.25 4.28125 -1.5 C 4.070312 -1.664062 3.863281 -1.75 3.65625 -1.75 C 3.445312 -1.757812 3.242188 -1.695312 3.046875 -1.5625 C 2.847656 -1.425781 2.648438 -1.234375 2.453125 -0.984375 Z M 2.453125 -0.984375 "/></g></g></g><g fill="#4a4a4a" fill-opacity="1"><g transform="translate(74.328037, 32.691981)"><g><path d="M 4.578125 -1.828125 C 4.992188 -1.410156 5.210938 -1.019531 5.234375 -0.65625 C 5.253906 -0.289062 5.109375 0.046875 4.796875 0.359375 C 4.671875 0.492188 4.519531 0.601562 4.34375 0.6875 C 4.164062 0.78125 3.976562 0.828125 3.78125 0.828125 C 3.59375 0.835938 3.390625 0.789062 3.171875 0.6875 C 2.960938 0.582031 2.742188 0.421875 2.515625 0.203125 L 2.203125 -0.09375 L 1.078125 1.0625 L 0.40625 0.390625 L 3.546875 -2.828125 Z M 3.984375 -1.296875 L 3.671875 -1.59375 L 2.75 -0.640625 L 2.984375 -0.421875 C 3.117188 -0.296875 3.242188 -0.203125 3.359375 -0.140625 C 3.484375 -0.0859375 3.601562 -0.0664062 3.71875 -0.078125 C 3.84375 -0.0976562 3.960938 -0.164062 4.078125 -0.28125 C 4.234375 -0.445312 4.300781 -0.609375 4.28125 -0.765625 C 4.269531 -0.929688 4.171875 -1.109375 3.984375 -1.296875 Z M 3.984375 -1.296875 "/></g></g></g><g fill="#4a4a4a" fill-opacity="1"><g transform="translate(77.290967, 35.617986)"><g><path d="M 2.015625 2.4375 L 0.359375 0.4375 L 3.828125 -2.421875 L 5.484375 -0.421875 L 4.890625 0.078125 L 3.84375 -1.1875 L 3.078125 -0.5625 L 4.046875 0.609375 L 3.4375 1.09375 L 2.46875 -0.078125 L 1.578125 0.671875 L 2.625 1.9375 Z M 2.015625 2.4375 "/></g></g></g><g fill="#4a4a4a" fill-opacity="1"><g transform="translate(79.670897, 38.491423)"><g><path d="M 4.796875 -0.90625 C 5.023438 -0.550781 5.171875 -0.234375 5.234375 0.046875 C 5.296875 0.328125 5.273438 0.570312 5.171875 0.78125 C 5.078125 0.988281 4.90625 1.175781 4.65625 1.34375 C 4.476562 1.457031 4.304688 1.523438 4.140625 1.546875 C 3.972656 1.566406 3.804688 1.550781 3.640625 1.5 C 3.472656 1.457031 3.328125 1.390625 3.203125 1.296875 L 2.28125 3.484375 L 1.703125 2.59375 L 2.5625 0.75 L 2.28125 0.3125 L 0.828125 1.265625 L 0.3125 0.46875 L 4.078125 -2 Z M 4.109375 -0.515625 L 3.9375 -0.765625 L 2.921875 -0.109375 L 3.09375 0.15625 C 3.269531 0.425781 3.4375 0.585938 3.59375 0.640625 C 3.757812 0.703125 3.925781 0.675781 4.09375 0.5625 C 4.28125 0.445312 4.367188 0.300781 4.359375 0.125 C 4.359375 -0.0390625 4.273438 -0.253906 4.109375 -0.515625 Z M 4.109375 -0.515625 "/></g></g></g></svg>