<svg xmlns="http://www.w3.org/2000/svg" xmlns:xlink="http://www.w3.org/1999/xlink" width="500" zoomAndPan="magnify" viewBox="0 0 375 374.999991" height="500" preserveAspectRatio="xMidYMid meet" version="1.0"><defs><g/></defs><path stroke-linecap="butt" transform="matrix(0.75, 0, 0, 0.75, 88.399993, 155.11499)" fill="none" stroke-linejoin="miter" d="M 103.982308 40.778975 L 65.15418 154.997732 L 38.747928 154.997732 L -0.00207413 40.778975 L 24.451052 40.778975 L 45.935429 108.747729 C 46.300012 109.893562 46.898971 112.044604 47.732304 115.195646 C 48.565637 118.346688 49.414596 121.680022 50.273971 125.195647 C 51.133346 128.711272 51.716679 131.612314 52.029179 133.903981 C 52.341679 131.612314 52.904179 128.721689 53.711471 125.232105 C 54.518763 121.742522 55.326055 118.424813 56.133346 115.273771 C 56.940638 112.122729 57.523971 109.945646 57.888555 108.747729 L 79.529181 40.778975 Z M 269.872944 40.778975 L 240.810442 154.997732 L 213.232315 154.997732 L 197.763564 94.997728 C 197.451064 93.851895 197.034397 92.107103 196.513564 89.763353 C 195.99273 87.419603 195.445855 84.857102 194.872939 82.070644 C 194.300022 79.284185 193.789605 76.653977 193.346897 74.180018 C 192.904189 71.70606 192.607314 69.73731 192.451064 68.278976 C 192.294814 69.73731 191.99273 71.690435 191.550022 74.138352 C 191.107313 76.586269 190.612522 79.190435 190.065647 81.950852 C 189.518772 84.711269 188.987522 87.289394 188.466688 89.685228 C 187.945855 92.081061 187.529188 93.903978 187.216688 95.153978 L 171.826062 154.997732 L 144.32606 154.997732 L 115.185433 40.778975 L 139.01356 40.778975 L 153.622936 103.122729 C 154.039603 104.997729 154.518769 107.237312 155.065644 109.841479 C 155.612519 112.445646 156.159394 115.169604 156.706269 118.008146 C 157.253145 120.846688 157.747936 123.581063 158.190645 126.211272 C 158.633353 128.84148 158.961478 131.117522 159.169811 133.044606 C 159.430228 131.065439 159.76877 128.763355 160.185436 126.133147 C 160.602103 123.502938 161.055228 120.820647 161.55002 118.086271 C 162.044812 115.351896 162.555228 112.810229 163.076062 110.466479 C 163.596895 108.122729 164.065645 106.221687 164.482312 104.763354 L 181.122938 40.778975 L 204.013564 40.778975 L 220.65419 104.763354 C 221.018774 106.169604 221.445857 108.060229 221.940649 110.430021 C 222.43544 112.799813 222.945857 115.362313 223.466691 118.12273 C 223.987524 120.883147 224.466691 123.581063 224.909399 126.211272 C 225.352107 128.84148 225.680232 131.117522 225.888566 133.044606 C 226.253149 130.440439 226.758357 127.27898 227.409399 123.555022 C 228.060441 119.831063 228.763566 116.117521 229.518774 112.419604 C 230.273983 108.721687 230.940649 105.622729 231.513566 103.122729 L 246.044817 40.778975 Z M 269.872944 40.778975 " stroke="#4a4a4a" stroke-width="6" stroke-opacity="1" stroke-miterlimit="4"/><g fill="#4a4a4a" fill-opacity="1"><g transform="translate(54.53234, 204.844373)"><g><path d="M 3.546875 -5.53125 L 1.328125 -2.078125 L -15.21875 -12.703125 L -9.125 -22.203125 L -6.25 -20.359375 L -10.125 -14.3125 L -5.859375 -11.5625 L -2.25 -17.1875 L 0.609375 -15.359375 L -3 -9.734375 Z M 3.546875 -5.53125 "/></g></g></g><g fill="#4a4a4a" fill-opacity="1"><g transform="translate(63.133951, 191.379069)"><g><path d="M -10.140625 -18.734375 C -9.015625 -20.117188 -7.921875 -21.128906 -6.859375 -21.765625 C -5.796875 -22.398438 -4.75 -22.660156 -3.71875 -22.546875 C -2.6875 -22.441406 -1.65625 -21.972656 -0.625 -21.140625 C 0.0820312 -20.578125 0.585938 -19.953125 0.890625 -19.265625 C 1.203125 -18.578125 1.363281 -17.875 1.375 -17.15625 C 1.382812 -16.4375 1.304688 -15.726562 1.140625 -15.03125 L 11.4375 -14.140625 L 8.53125 -10.546875 L -0.3125 -11.640625 L -1.703125 -9.921875 L 4.171875 -5.171875 L 1.546875 -1.921875 L -13.75 -14.28125 Z M -7.671875 -16.359375 L -8.46875 -15.390625 L -4.328125 -12.046875 L -3.484375 -13.078125 C -2.609375 -14.160156 -2.164062 -15.078125 -2.15625 -15.828125 C -2.144531 -16.578125 -2.484375 -17.234375 -3.171875 -17.796875 C -3.898438 -18.378906 -4.617188 -18.546875 -5.328125 -18.296875 C -6.046875 -18.054688 -6.828125 -17.410156 -7.671875 -16.359375 Z M -7.671875 -16.359375 "/></g></g></g><g fill="#4a4a4a" fill-opacity="1"><g transform="translate(74.929791, 176.661449)"><g><path d="M 7.890625 -21.171875 C 8.941406 -20.078125 9.757812 -18.945312 10.34375 -17.78125 C 10.925781 -16.625 11.25 -15.453125 11.3125 -14.265625 C 11.375 -13.085938 11.144531 -11.921875 10.625 -10.765625 C 10.113281 -9.617188 9.28125 -8.492188 8.125 -7.390625 C 6.957031 -6.273438 5.78125 -5.484375 4.59375 -5.015625 C 3.414062 -4.546875 2.242188 -4.375 1.078125 -4.5 C -0.0859375 -4.625 -1.238281 -5.003906 -2.375 -5.640625 C -3.507812 -6.273438 -4.609375 -7.144531 -5.671875 -8.25 C -7.078125 -9.71875 -8.054688 -11.226562 -8.609375 -12.78125 C -9.171875 -14.34375 -9.234375 -15.90625 -8.796875 -17.46875 C -8.367188 -19.039062 -7.378906 -20.5625 -5.828125 -22.03125 C -4.285156 -23.507812 -2.726562 -24.421875 -1.15625 -24.765625 C 0.40625 -25.109375 1.953125 -24.960938 3.484375 -24.328125 C 5.015625 -23.691406 6.484375 -22.640625 7.890625 -21.171875 Z M -2.5 -11.265625 C -1.539062 -10.265625 -0.597656 -9.523438 0.328125 -9.046875 C 1.265625 -8.566406 2.179688 -8.390625 3.078125 -8.515625 C 3.984375 -8.640625 4.859375 -9.109375 5.703125 -9.921875 C 6.554688 -10.734375 7.066406 -11.582031 7.234375 -12.46875 C 7.398438 -13.363281 7.265625 -14.285156 6.828125 -15.234375 C 6.390625 -16.179688 5.691406 -17.15625 4.734375 -18.15625 C 3.316406 -19.644531 1.921875 -20.550781 0.546875 -20.875 C -0.828125 -21.195312 -2.15625 -20.742188 -3.4375 -19.515625 C -4.28125 -18.710938 -4.789062 -17.859375 -4.96875 -16.953125 C -5.144531 -16.054688 -5.015625 -15.132812 -4.578125 -14.1875 C -4.140625 -13.238281 -3.445312 -12.265625 -2.5 -11.265625 Z M -2.5 -11.265625 "/></g></g></g><g fill="#4a4a4a" fill-opacity="1"><g transform="translate(91.209685, 161.162618)"><g><path d="M 16.203125 -11.578125 L 11.90625 -8.5 L -3.703125 -15.640625 L -3.8125 -15.5625 C -3.425781 -15.082031 -3.039062 -14.59375 -2.65625 -14.09375 C -2.269531 -13.59375 -1.882812 -13.097656 -1.5 -12.609375 C -1.113281 -12.117188 -0.722656 -11.628906 -0.328125 -11.140625 L 5.046875 -3.609375 L 2.015625 -1.4375 L -9.421875 -17.4375 L -5.140625 -20.5 L 10.375 -13.484375 L 10.453125 -13.53125 C 10.085938 -14.007812 9.71875 -14.488281 9.34375 -14.96875 C 8.96875 -15.445312 8.59375 -15.921875 8.21875 -16.390625 C 7.851562 -16.859375 7.492188 -17.335938 7.140625 -17.828125 L 1.71875 -25.40625 L 4.765625 -27.578125 Z M 16.203125 -11.578125 "/></g></g></g><g fill="#4a4a4a" fill-opacity="1"><g transform="translate(110.14314, 147.930594)"><g><path d="M 8.84375 -4.796875 L 5.171875 -2.8125 L -2.546875 -17.046875 L -7.234375 -14.5 L -8.890625 -17.5625 L 4.171875 -24.640625 L 5.828125 -21.578125 L 1.125 -19.03125 Z M 8.84375 -4.796875 "/></g></g></g><g fill="#4a4a4a" fill-opacity="1"><g transform="translate(124.996292, 139.951685)"><g><path d="M 12.75 -5.28125 L 2.28125 -0.953125 L -5.25 -19.125 L 5.21875 -23.453125 L 6.53125 -20.296875 L -0.078125 -17.5625 L 1.5625 -13.578125 L 7.703125 -16.125 L 9.015625 -12.953125 L 2.875 -10.40625 L 4.828125 -5.71875 L 11.4375 -8.453125 Z M 12.75 -5.28125 "/></g></g></g><g fill="#4a4a4a" fill-opacity="1"><g transform="translate(139.869781, 133.602972)"><g><path d="M 19.203125 -5.328125 L 14.09375 -3.90625 L 1.859375 -15.953125 L 1.734375 -15.921875 C 1.941406 -15.335938 2.144531 -14.742188 2.34375 -14.140625 C 2.539062 -13.546875 2.734375 -12.953125 2.921875 -12.359375 C 3.109375 -11.765625 3.304688 -11.164062 3.515625 -10.5625 L 5.984375 -1.65625 L 2.375 -0.65625 L -2.890625 -19.609375 L 2.1875 -21.015625 L 14.359375 -9.109375 L 14.453125 -9.125 C 14.273438 -9.707031 14.09375 -10.285156 13.90625 -10.859375 C 13.71875 -11.429688 13.53125 -12.003906 13.34375 -12.578125 C 13.15625 -13.148438 12.976562 -13.726562 12.8125 -14.3125 L 10.3125 -23.28125 L 13.9375 -24.28125 Z M 19.203125 -5.328125 "/></g></g></g><g fill="#4a4a4a" fill-opacity="1"><g transform="translate(162.045849, 127.560519)"><g><path d="M 17.28125 -12.4375 C 17.582031 -10.25 17.410156 -8.363281 16.765625 -6.78125 C 16.128906 -5.195312 15.0625 -3.925781 13.5625 -2.96875 C 12.070312 -2.007812 10.207031 -1.378906 7.96875 -1.078125 L 2.453125 -0.328125 L -0.171875 -19.828125 L 5.953125 -20.65625 C 7.992188 -20.925781 9.8125 -20.796875 11.40625 -20.265625 C 13.007812 -19.742188 14.316406 -18.832031 15.328125 -17.53125 C 16.347656 -16.226562 17 -14.53125 17.28125 -12.4375 Z M 13 -11.734375 C 12.8125 -13.179688 12.441406 -14.34375 11.890625 -15.21875 C 11.347656 -16.09375 10.632812 -16.695312 9.75 -17.03125 C 8.863281 -17.363281 7.816406 -17.453125 6.609375 -17.296875 L 4.40625 -17 L 6.125 -4.296875 L 7.90625 -4.53125 C 9.914062 -4.800781 11.335938 -5.539062 12.171875 -6.75 C 13.015625 -7.957031 13.289062 -9.617188 13 -11.734375 Z M 13 -11.734375 "/></g></g></g><g fill="#4a4a4a" fill-opacity="1"><g transform="translate(183.294158, 125.054736)"><g/></g></g><g fill="#4a4a4a" fill-opacity="1"><g transform="translate(191.464638, 124.456441)"><g><path d="M 19.265625 -9.046875 C 19.160156 -6.835938 18.644531 -5.015625 17.71875 -3.578125 C 16.800781 -2.140625 15.519531 -1.085938 13.875 -0.421875 C 12.238281 0.242188 10.289062 0.519531 8.03125 0.40625 L 2.46875 0.125 L 3.46875 -19.515625 L 9.640625 -19.203125 C 11.703125 -19.097656 13.46875 -18.640625 14.9375 -17.828125 C 16.40625 -17.023438 17.519531 -15.890625 18.28125 -14.421875 C 19.050781 -12.953125 19.378906 -11.160156 19.265625 -9.046875 Z M 14.9375 -9.15625 C 15.007812 -10.613281 14.859375 -11.820312 14.484375 -12.78125 C 14.109375 -13.738281 13.515625 -14.460938 12.703125 -14.953125 C 11.898438 -15.441406 10.890625 -15.71875 9.671875 -15.78125 L 7.453125 -15.90625 L 6.796875 -3.109375 L 8.59375 -3.015625 C 10.625 -2.910156 12.160156 -3.375 13.203125 -4.40625 C 14.253906 -5.4375 14.832031 -7.019531 14.9375 -9.15625 Z M 14.9375 -9.15625 "/></g></g></g><g fill="#4a4a4a" fill-opacity="1"><g transform="translate(212.595012, 125.716044)"><g><path d="M 13.609375 2.296875 L 2.4375 0.40625 L 5.703125 -18.984375 L 16.875 -17.09375 L 16.3125 -13.734375 L 9.25 -14.921875 L 8.53125 -10.65625 L 15.09375 -9.5625 L 14.53125 -6.1875 L 7.96875 -7.28125 L 7.125 -2.28125 L 14.1875 -1.09375 Z M 13.609375 2.296875 "/></g></g></g><g fill="#4a4a4a" fill-opacity="1"><g transform="translate(228.65788, 128.402416)"><g><path d="M 22.59375 -14.03125 L 10.796875 3.0625 L 6.421875 1.8125 L 5.359375 -18.921875 L 9.40625 -17.78125 L 9.78125 -5.515625 C 9.789062 -5.296875 9.789062 -4.90625 9.78125 -4.34375 C 9.78125 -3.789062 9.765625 -3.203125 9.734375 -2.578125 C 9.703125 -1.953125 9.65625 -1.441406 9.59375 -1.046875 C 9.757812 -1.410156 9.988281 -1.863281 10.28125 -2.40625 C 10.582031 -2.945312 10.875 -3.457031 11.15625 -3.9375 C 11.445312 -4.425781 11.648438 -4.765625 11.765625 -4.953125 L 18.53125 -15.1875 Z M 22.59375 -14.03125 "/></g></g></g><g fill="#4a4a4a" fill-opacity="1"><g transform="translate(246.562425, 133.389745)"><g><path d="M 22.5625 -1.0625 C 21.96875 0.320312 21.25 1.507812 20.40625 2.5 C 19.570312 3.5 18.628906 4.257812 17.578125 4.78125 C 16.523438 5.300781 15.363281 5.550781 14.09375 5.53125 C 12.820312 5.519531 11.445312 5.195312 9.96875 4.5625 C 8.488281 3.925781 7.304688 3.15625 6.421875 2.25 C 5.535156 1.351562 4.914062 0.34375 4.5625 -0.78125 C 4.207031 -1.90625 4.097656 -3.113281 4.234375 -4.40625 C 4.378906 -5.707031 4.753906 -7.0625 5.359375 -8.46875 C 6.160156 -10.332031 7.164062 -11.828125 8.375 -12.953125 C 9.582031 -14.078125 10.988281 -14.75 12.59375 -14.96875 C 14.207031 -15.1875 15.992188 -14.875 17.953125 -14.03125 C 19.921875 -13.195312 21.367188 -12.125 22.296875 -10.8125 C 23.234375 -9.507812 23.710938 -8.023438 23.734375 -6.359375 C 23.753906 -4.703125 23.363281 -2.9375 22.5625 -1.0625 Z M 9.359375 -6.71875 C 8.816406 -5.457031 8.507812 -4.300781 8.4375 -3.25 C 8.375 -2.207031 8.570312 -1.296875 9.03125 -0.515625 C 9.5 0.265625 10.269531 0.882812 11.34375 1.34375 C 12.425781 1.8125 13.410156 1.941406 14.296875 1.734375 C 15.191406 1.535156 15.988281 1.046875 16.6875 0.265625 C 17.382812 -0.503906 18.003906 -1.519531 18.546875 -2.78125 C 19.359375 -4.675781 19.644531 -6.316406 19.40625 -7.703125 C 19.164062 -9.097656 18.226562 -10.144531 16.59375 -10.84375 C 15.519531 -11.300781 14.535156 -11.429688 13.640625 -11.234375 C 12.742188 -11.046875 11.941406 -10.5625 11.234375 -9.78125 C 10.535156 -9.007812 9.910156 -7.988281 9.359375 -6.71875 Z M 9.359375 -6.71875 "/></g></g></g><g fill="#4a4a4a" fill-opacity="1"><g transform="translate(267.292721, 142.520054)"><g><path d="M 2.140625 1.234375 L 12.015625 -15.78125 L 15.625 -13.6875 L 7.46875 0.359375 L 14.375 4.375 L 12.65625 7.34375 Z M 2.140625 1.234375 "/></g></g></g><g fill="#4a4a4a" fill-opacity="1"><g transform="translate(281.476205, 150.581759)"><g><path d="M 22.15625 4.390625 C 21.25 5.585938 20.269531 6.566406 19.21875 7.328125 C 18.164062 8.097656 17.0625 8.609375 15.90625 8.859375 C 14.75 9.117188 13.5625 9.085938 12.34375 8.765625 C 11.125 8.441406 9.875 7.796875 8.59375 6.828125 C 7.300781 5.859375 6.332031 4.828125 5.6875 3.734375 C 5.039062 2.640625 4.679688 1.503906 4.609375 0.328125 C 4.546875 -0.835938 4.734375 -2.035156 5.171875 -3.265625 C 5.617188 -4.492188 6.304688 -5.71875 7.234375 -6.9375 C 8.453125 -8.5625 9.785156 -9.769531 11.234375 -10.5625 C 12.679688 -11.363281 14.210938 -11.675781 15.828125 -11.5 C 17.441406 -11.332031 19.101562 -10.601562 20.8125 -9.3125 C 22.507812 -8.03125 23.65625 -6.640625 24.25 -5.140625 C 24.84375 -3.640625 24.953125 -2.082031 24.578125 -0.46875 C 24.203125 1.132812 23.394531 2.753906 22.15625 4.390625 Z M 10.703125 -4.265625 C 9.878906 -3.171875 9.300781 -2.125 8.96875 -1.125 C 8.644531 -0.132812 8.617188 0.796875 8.890625 1.671875 C 9.171875 2.546875 9.773438 3.332031 10.703125 4.03125 C 11.640625 4.738281 12.5625 5.097656 13.46875 5.109375 C 14.375 5.128906 15.257812 4.847656 16.125 4.265625 C 17 3.691406 17.847656 2.859375 18.671875 1.765625 C 19.921875 0.117188 20.59375 -1.40625 20.6875 -2.8125 C 20.78125 -4.226562 20.125 -5.46875 18.71875 -6.53125 C 17.78125 -7.238281 16.851562 -7.601562 15.9375 -7.625 C 15.019531 -7.65625 14.128906 -7.378906 13.265625 -6.796875 C 12.398438 -6.222656 11.546875 -5.378906 10.703125 -4.265625 Z M 10.703125 -4.265625 "/></g></g></g><g fill="#4a4a4a" fill-opacity="1"><g transform="translate(299.39714, 164.361124)"><g><path d="M 20.015625 -7.96875 C 21.828125 -6.1875 22.765625 -4.492188 22.828125 -2.890625 C 22.898438 -1.296875 22.269531 0.175781 20.9375 1.53125 C 20.332031 2.15625 19.664062 2.65625 18.9375 3.03125 C 18.207031 3.40625 17.421875 3.601562 16.578125 3.625 C 15.734375 3.65625 14.832031 3.457031 13.875 3.03125 C 12.925781 2.601562 11.941406 1.890625 10.921875 0.890625 L 9.640625 -0.359375 L 4.75 4.640625 L 1.765625 1.71875 L 15.515625 -12.359375 Z M 17.46875 -5.65625 L 16.109375 -6.984375 L 12.015625 -2.796875 L 13 -1.84375 C 13.5625 -1.289062 14.117188 -0.890625 14.671875 -0.640625 C 15.222656 -0.390625 15.765625 -0.3125 16.296875 -0.40625 C 16.828125 -0.5 17.335938 -0.796875 17.828125 -1.296875 C 18.503906 -1.992188 18.816406 -2.695312 18.765625 -3.40625 C 18.710938 -4.113281 18.28125 -4.863281 17.46875 -5.65625 Z M 17.46875 -5.65625 "/></g></g></g><g fill="#4a4a4a" fill-opacity="1"><g transform="translate(312.32341, 177.126317)"><g><path d="M 8.78125 10.640625 L 1.578125 1.90625 L 16.75 -10.609375 L 23.953125 -1.875 L 21.3125 0.296875 L 16.75 -5.21875 L 13.421875 -2.46875 L 17.671875 2.65625 L 15.03125 4.828125 L 10.78125 -0.296875 L 6.875 2.9375 L 11.4375 8.453125 Z M 8.78125 10.640625 "/></g></g></g><g fill="#4a4a4a" fill-opacity="1"><g transform="translate(322.706252, 189.662139)"><g><path d="M 20.953125 -3.921875 C 21.921875 -2.429688 22.539062 -1.082031 22.8125 0.125 C 23.09375 1.34375 23.023438 2.425781 22.609375 3.375 C 22.191406 4.320312 21.429688 5.160156 20.328125 5.890625 C 19.566406 6.378906 18.8125 6.664062 18.0625 6.75 C 17.3125 6.832031 16.59375 6.769531 15.90625 6.5625 C 15.21875 6.351562 14.566406 6.0625 13.953125 5.6875 L 9.96875 15.21875 L 7.4375 11.34375 L 11.171875 3.265625 L 9.953125 1.421875 L 3.640625 5.5625 L 1.359375 2.0625 L 17.8125 -8.71875 Z M 17.921875 -2.296875 L 17.234375 -3.34375 L 12.796875 -0.421875 L 13.53125 0.6875 C 14.289062 1.851562 15.023438 2.554688 15.734375 2.796875 C 16.441406 3.035156 17.171875 2.910156 17.921875 2.421875 C 18.691406 1.910156 19.066406 1.273438 19.046875 0.515625 C 19.035156 -0.234375 18.660156 -1.171875 17.921875 -2.296875 Z M 17.921875 -2.296875 "/></g></g></g></svg>